<svg width="271" height="36" viewBox="0 0 271 36" fill="none" xmlns="http://www.w3.org/2000/svg">
<path fill-rule="evenodd" clip-rule="evenodd" d="M184.221 2.89562e-06L268.567 0L270.189 1.6C270.088 3.04569 269.977 4.28636 269.879 5.39517C269.602 8.49647 269.418 10.5663 269.789 13.2056L270.189 13.6C270.157 14.0569 270.124 14.4934 270.091 14.9117C270.307 15.9414 270.604 17.0813 271 18.4C270.813 19.3245 270.235 19.9926 269.628 20.5821C269.465 23.5718 269.673 25.9817 271 30.4C270.774 31.5151 269.981 32.2571 269.253 32.9381C269.11 33.0714 268.97 33.2024 268.837 33.3333C268.567 33.3333 268.297 33.4 268.026 33.4667C267.756 33.5333 267.486 33.6 267.215 33.6L249.643 33.6C247.513 33.6 245.318 33.6647 243.089 33.7303C240.792 33.798 238.459 33.8667 236.126 33.8667C225.942 33.3379 216.023 33.5955 205.844 33.8598L205.578 33.8667C203.508 33.8667 201.438 33.8068 199.374 33.7472C193.889 33.5887 188.443 33.4313 183.14 34.4C181.702 33.4545 180.264 33.7196 178.827 33.9846C177.831 34.168 176.836 34.3515 175.841 34.1333C173.925 33.5663 172.008 33.6691 169.996 33.7771C169.169 33.8214 168.326 33.8667 167.46 33.8667L91.4948 33.8667C90.8833 33.8667 90.2856 33.8394 89.6986 33.8126C87.6907 33.7209 85.808 33.6349 83.9253 34.6667C83.3182 34.5811 82.7112 34.4407 82.0952 34.2982C80.791 33.9965 79.4468 33.6855 77.9778 33.8667C77.4468 33.8667 76.8868 33.8095 76.3168 33.7513C75.1457 33.6318 73.9324 33.5079 72.8414 33.8667C71.8858 34.2706 70.9992 34.1306 70.1467 33.996C69.3109 33.8641 68.5079 33.7373 67.7049 34.1333C66.9416 34.5098 66.1783 34.4138 65.415 34.3179C64.5563 34.2099 63.6976 34.102 62.8388 34.6667C62.0278 35.1467 60.9248 35.0507 59.8218 34.9547C59.0865 34.8907 58.3512 34.8267 57.7024 34.9333C56.1885 35.1822 54.6746 35.0246 53.1607 34.867C51.4305 34.6868 49.7004 34.5067 47.9702 34.9333C45.7361 35.334 43.1968 35.2832 40.6962 35.2331C39.8684 35.2165 39.0448 35.2 38.238 35.2L33.3719 36L28.5058 35.2C27.9745 35.1127 27.4142 35.0825 26.8724 35.0534C25.7601 34.9936 24.7257 34.938 24.1803 34.4C16.6657 35.4589 9.68396 35.2038 2.44156 34.9391L2.28288 34.9333C2.13695 34.6455 1.99718 34.3721 1.86381 34.1113C0.0205622 30.5069 -0.599661 29.2941 0.660831 25.0667C0.931183 24.2667 1.20152 23.4667 0.660831 22.9333C0.0201159 21.6693 0.233586 21.4351 0.570177 21.0658C0.71547 20.9064 0.883703 20.7218 1.01608 20.4184C-0.13835 17.9935 -0.380302 16.5584 0.660831 13.0667C0.931183 12.2667 1.20152 11.4667 0.660831 10.9333C0.020116 9.6693 0.233586 9.43509 0.570177 9.0658C0.801654 8.81183 1.09136 8.49397 1.20152 7.73334L0.120159 4.00001L2.28288 1.60001C5.51735 1.42276 8.87126 1.48114 12.2652 1.54022C13.9773 1.57003 15.6996 1.60001 17.4219 1.60001L28.7761 1.60001C29.1184 1.60001 29.4606 1.61711 29.7985 1.63398C30.795 1.68376 31.7533 1.73163 32.5609 1.33334C34.3156 0.179383 36.0704 0.41253 37.7238 0.632202C38.3628 0.717112 38.9868 0.800008 39.5897 0.800008C40.1899 0.865798 40.7573 0.980282 41.308 1.0914C42.9894 1.43068 44.5154 1.7386 46.3482 0.533341C46.8888 0.266674 48.2405 0.266674 49.0515 0.266674C53.9519 0.266674 58.8523 0.672328 63.7182 1.07512C68.516 1.47229 73.2802 1.86667 77.9778 1.86667C80.3208 1.86667 82.6637 1.62964 85.0066 1.3926C86.1781 1.27408 87.3496 1.15556 88.5211 1.06667C91.4948 1.06667 94.4685 1.06667 97.7126 0.800006C104.741 0.266671 107.445 0.533338 115.555 1.33334C120.151 1.86667 125.017 2.4 129.883 0.800004C130.694 0.533337 131.775 0.26667 132.857 0.26667C135.412 0.26667 137.967 0.222916 140.516 0.179271C146.866 0.070536 153.177 -0.0375234 159.35 0.533336C164.612 1.20308 169.874 0.821519 175.069 0.44481C178.148 0.221554 181.203 3.02754e-06 184.221 2.89562e-06Z" fill="#19AB6E"/>
</svg>
