<svg xmlns="http://www.w3.org/2000/svg" width="132" height="32" viewBox="0 0 132 32" fill="none">
<path d="M1.76741 18.7772C2.53258 18.2183 4.36901 18.917 5.13418 18.7772C8.80701 18.7772 11.2556 18.4978 14.7754 18.0786C15.8466 17.9388 16.7648 17.9388 17.8361 18.2183C19.2134 18.6375 20.7437 18.7772 22.121 18.6375C24.8757 18.2183 27.4772 18.4978 30.0788 18.4978C31.6092 18.4978 33.2926 19.0567 34.8229 18.7772C38.3427 18.0786 41.7095 18.358 45.2293 18.358L53.7992 18.358C56.7069 18.358 59.6146 18.4978 62.5222 18.2183C64.5117 18.0786 66.5011 18.4978 68.3375 18.2183C70.6331 17.9388 72.9286 18.4978 75.2241 18.0786C76.7544 17.7991 78.4378 18.2183 79.9682 18.0786C83.1819 17.6594 86.2426 18.2183 89.4563 17.7991C91.7519 17.3799 94.0474 17.7991 96.3429 17.9388C97.2611 17.9388 98.1793 17.7991 99.0975 17.7991C102.923 18.0786 106.596 17.9388 110.422 18.0786C112.565 18.0786 114.707 17.9388 116.85 18.0786C119.91 18.358 122.818 18.358 125.879 18.358C127.409 18.358 128.786 18.4978 130.317 18.0786L131.388 15.7031C131.847 10.8126 130.317 5.7823 132 0.891744C131.541 0.332822 131.082 0.0533635 130.47 0.193092C129.858 0.472553 129.092 0.332822 128.48 0.193092C126.032 -0.0863668 123.583 -0.0863667 121.288 0.332823C118.686 0.752014 116.237 0.612284 113.789 0.612284C109.351 0.612284 105.066 0.612285 100.781 0.752015C97.8732 0.752015 94.9656 0.612285 92.0579 0.752016L82.8758 1.31094C82.2637 1.45067 82.4167 2.00959 81.9576 1.86986C79.8151 1.5904 77.6727 1.17121 75.3771 2.00959C73.5407 0.612287 71.3982 2.14932 69.4088 1.5904C69.1027 1.73013 69.4088 2.28905 69.2557 2.28905C68.0315 1.45067 66.9602 1.45067 65.7359 1.73013C65.4299 1.73013 65.2768 2.28905 64.9708 2.00959C64.0526 1.03148 63.1344 1.73013 62.2161 1.86986L58.2372 1.86986C55.9417 1.86986 53.7992 1.5904 51.5037 1.86986C50.1264 2.00959 48.596 2.28905 47.0657 1.86986C45.2293 1.45067 43.0868 1.31094 41.0973 1.45067C37.8836 1.73013 34.5168 1.86986 31.1501 1.5904C27.1712 1.31094 23.1923 2.00959 19.0603 1.5904C15.6936 1.17121 12.1738 2.00959 8.65398 1.45067C7.8888 1.31094 7.12363 1.86986 6.35845 1.45067C4.8281 0.332829 3.14472 1.73013 1.61438 0.89175C1.00224 1.45067 0.54313 1.86986 0.237065 2.28905C-0.68115 4.94393 1.46135 7.45907 0.0840322 9.97422C0.696163 10.9523 0.696163 10.9523 0.237065 12.2099C0.0840323 12.3496 0.0840323 12.7688 0.0840323 12.9086C0.849205 14.4456 0.390098 16.1223 0.543131 17.6594C0.849206 18.0786 0.390098 18.7772 1.76741 18.7772Z" fill="#19AB6E"/>
<path d="M1.76741 31.3514C2.53258 30.7925 4.36901 31.4912 5.13418 31.3514C8.80701 31.3514 11.2556 31.072 14.7754 30.6528C15.8466 30.5131 16.7648 30.5131 17.8361 30.7925C19.2134 31.2117 20.7437 31.3514 22.121 31.2117C24.8757 30.7925 27.4772 31.072 30.0788 31.072C31.6092 31.072 33.2926 31.6309 34.8229 31.3514C38.3427 30.6528 41.7095 30.9322 45.2293 30.9322L53.7992 30.9322C56.7069 30.9322 59.6146 31.072 62.5222 30.7925C64.5117 30.6528 66.5011 31.072 68.3375 30.7925C70.6331 30.5131 72.9286 31.072 75.2241 30.6528C76.7544 30.3733 78.4378 30.7925 79.9682 30.6528C83.1819 30.2336 86.2426 30.7925 89.4563 30.3733C91.7519 29.9541 94.0474 30.3733 96.3429 30.5131C97.2611 30.5131 98.1793 30.3733 99.0975 30.3733C102.923 30.6528 106.596 30.5131 110.422 30.6528C112.565 30.6528 114.707 30.5131 116.85 30.6528C119.91 30.9322 122.818 30.9322 125.879 30.9322C127.409 30.9322 128.786 31.072 130.317 30.6528L131.388 28.2774C131.847 23.3868 130.317 18.3565 132 13.466C131.541 12.907 131.082 12.6276 130.47 12.7673C129.858 13.0468 129.092 12.907 128.48 12.7673C126.032 12.4879 123.583 12.4879 121.288 12.907C118.686 13.3262 116.237 13.1865 113.789 13.1865C109.351 13.1865 105.066 13.1865 100.781 13.3262C97.8732 13.3262 94.9656 13.1865 92.0579 13.3262L82.8758 13.8852C82.2637 14.0249 82.4167 14.5838 81.9576 14.4441C79.8151 14.1646 77.6727 13.7454 75.3771 14.5838C73.5407 13.1865 71.3982 14.7235 69.4088 14.1646C69.1027 14.3043 69.4088 14.8633 69.2557 14.8633C68.0315 14.0249 66.9602 14.0249 65.7359 14.3043C65.4299 14.3043 65.2768 14.8633 64.9708 14.5838C64.0526 13.6057 63.1344 14.3043 62.2161 14.4441L58.2372 14.4441C55.9417 14.4441 53.7992 14.1646 51.5037 14.4441C50.1264 14.5838 48.596 14.8633 47.0657 14.4441C45.2293 14.0249 43.0868 13.8852 41.0973 14.0249C37.8836 14.3043 34.5168 14.4441 31.1501 14.1646C27.1712 13.8852 23.1923 14.5838 19.0603 14.1646C15.6936 13.7454 12.1738 14.5838 8.65398 14.0249C7.8888 13.8852 7.12363 14.4441 6.35845 14.0249C4.8281 12.907 3.14472 14.3043 1.61438 13.466C1.00224 14.0249 0.54313 14.4441 0.237065 14.8633C-0.68115 17.5181 1.46135 20.0333 0.0840322 22.5484C0.696163 23.5265 0.696163 23.5265 0.237065 24.7841C0.0840323 24.9238 0.0840323 25.343 0.0840323 25.4828C0.849205 27.0198 0.390098 28.6966 0.543131 30.2336C0.849206 30.6528 0.390098 31.3514 1.76741 31.3514Z" fill="#19AB6E"/>
</svg>