<svg width="19" height="15" viewBox="0 0 19 15" fill="none" xmlns="http://www.w3.org/2000/svg">
  <path fill="#bb0000" d="M5.79478 15C12.7559 15 16.565 9.22736 16.565 4.22982C16.565 4.06742 16.565 3.90502 16.5576 3.74262C17.2958 3.21112 17.938 2.53937 18.4473 1.77904C17.7682 2.08169 17.0374 2.281 16.2697 2.37697C17.0522 1.91191 17.6501 1.16634 17.938 0.280511C17.2072 0.716043 16.3952 1.02608 15.5315 1.19587C14.8376 0.457677 13.8558 0 12.7707 0C10.6816 0 8.98376 1.69783 8.98376 3.78691C8.98376 4.08218 9.02067 4.37008 9.07973 4.65059C5.93504 4.49557 3.14469 2.98228 1.27707 0.693898C0.952264 1.25492 0.767717 1.90453 0.767717 2.59843C0.767717 3.9124 1.43947 5.07136 2.45079 5.75049C1.83071 5.72835 1.24754 5.55856 0.738189 5.27805C0.738189 5.29281 0.738189 5.30758 0.738189 5.32972C0.738189 7.16043 2.04478 8.69586 3.77215 9.04281C3.45472 9.1314 3.12254 9.17569 2.77559 9.17569C2.53199 9.17569 2.29577 9.15354 2.06693 9.10925C2.54675 10.6152 3.94931 11.7077 5.60285 11.7372C4.30364 12.7559 2.67224 13.3612 0.900591 13.3612C0.597933 13.3612 0.295276 13.3465 0 13.3095C1.66831 14.3725 3.66142 15 5.79478 15Z"></path>
</svg>